<?xml version="1.0" encoding="UTF-8" standalone="no"?>
<!-- Generator: Adobe Illustrator 21.1.0, SVG Export Plug-In . SVG Version: 6.00 Build 0)  -->

<svg
   version="1.1"
   id="svg2020"
   viewBox="0 0 47.299999 49.135204"
   inkscape:version="1.1.2 (0a00cf5339, 2022-02-04)"
   width="47.299999"
   height="49.135204"
   sodipodi:docname="Rumble_logo_simplified.svg"
   xmlns:inkscape="http://www.inkscape.org/namespaces/inkscape"
   xmlns:sodipodi="http://sodipodi.sourceforge.net/DTD/sodipodi-0.dtd"
   xmlns="http://www.w3.org/2000/svg"
   xmlns:svg="http://www.w3.org/2000/svg">
  <defs
     id="defs15" />
  <sodipodi:namedview
     pagecolor="#ffffff"
     bordercolor="#666666"
     borderopacity="1"
     objecttolerance="10"
     gridtolerance="10"
     guidetolerance="10"
     inkscape:pageopacity="0"
     inkscape:pageshadow="2"
     inkscape:window-width="2560"
     inkscape:window-height="1378"
     id="namedview13"
     showgrid="false"
     fit-margin-top="0"
     fit-margin-left="0"
     fit-margin-right="0"
     fit-margin-bottom="0"
     inkscape:zoom="2.86"
     inkscape:cx="45.104895"
     inkscape:cy="68.531468"
     inkscape:window-x="0"
     inkscape:window-y="25"
     inkscape:window-maximized="1"
     inkscape:current-layer="g5"
     inkscape:pagecheckerboard="0" />
  <g
     id="g5"
     style="fill:#699c39;fill-opacity:1"
     transform="translate(-76.4,-2.9634781)">
    <g
       id="g3767"
       transform="translate(73.2)">
      <g
         id="g3762">
        <path
           class="st0"
           d="m 14.5,48.1 c 0.5,0.7 1.1,1.2 1.8,1.6 3.5,2 9.5,0.1 18.6,-5.2 v 0 C 44.1,39.2 48.7,35 48.8,31 c 0,-0.6 -0.1,-1.1 -0.3,-1.7 -5.8,7.9 -25.2,17.7 -34,18.8 m 0.8,-42 c 7.9,1.4 27.8,12.4 33.2,19.7 0.2,-0.5 0.2,-1.1 0.3,-1.6 0,-4 -4.5,-8.3 -13.8,-13.6 v 0 C 25.9,5.4 20,3.4 16.4,5.4 16,5.6 15.7,5.8 15.3,6.1 Z M 9,6.8 C 10.2,6.1 11.7,5.8 13.3,5.9 14,5 14.7,4.4 15.6,3.9 19.7,1.6 26.2,3.6 35.8,9.2 v 0 c 9.8,5.7 14.7,10.3 14.7,15.1 0,1.1 -0.3,2.2 -0.8,3.3 0.6,1.1 0.8,2.3 0.8,3.4 0,4.7 -5,9.3 -14.7,14.9 v 0 c -9.7,5.6 -16.1,7.6 -20.3,5.2 -1.1,-0.6 -2.1,-1.6 -2.9,-2.9 -1.4,0 -2.6,-0.4 -3.7,-1 C 4.8,44.9 3.2,38.4 3.2,27 3.2,15.6 4.9,9.1 9,6.8 Z m 3.3,0.7 c -0.9,0.1 -1.8,0.3 -2.5,0.7 -3.5,2 -4.9,8 -4.9,18.8 0,10.7 1.3,16.8 4.9,18.8 0.6,0.3 1.3,0.6 2.1,0.7 -3.8,-7.6 -3.8,-31.8 0.4,-39 z m 4.1,4.6 c -6.8,3.8 -6.8,27 -0.1,30.8 7,4 25.9,-9.8 25.9,-15.8 C 42.3,19.3 23,8.4 16.4,12.1 Z"
           id="path7"
           style="fill:#699c39;fill-opacity:1"
           inkscape:connector-curvature="0" />
        <path
           class="st1"
           d="m 29.3,28.8 c -0.9,0.5 -1.9,1.1 -2.8,1.6 -0.9,0.5 -1.9,1.1 -2.8,1.6 -2.9,1.7 -2.8,1.8 -2.8,-1.6 0,-1.1 0,-2.1 0,-3.2 0,-1.1 0,-2.1 0,-3.2 0,-3.3 -0.2,-3.3 2.8,-1.6 0.9,0.5 1.9,1.1 2.8,1.6 0.9,0.5 1.9,1.1 2.8,1.6 2.9,1.7 2.9,1.6 0,3.2"
           id="path9"
           style="fill:#699c39;fill-opacity:1;fill-rule:evenodd"
           inkscape:connector-curvature="0" />
        <path
           id="path54211"
           d="" />
      </g>
    </g>
  </g>
</svg>
